<mxfile host="65bd71144e">
    <diagram id="U7nsphjpqwQKyv5-BJyP" name="Page-1">
        <mxGraphModel dx="1444" dy="459" grid="1" gridSize="10" guides="1" tooltips="1" connect="1" arrows="1" fold="1" page="1" pageScale="1" pageWidth="850" pageHeight="1100" math="0" shadow="0">
            <root>
                <mxCell id="0"/>
                <mxCell id="1" parent="0"/>
                <mxCell id="9" value="" style="strokeWidth=1;shadow=0;dashed=0;align=center;html=1;shape=mxgraph.mockup.containers.browserWindow;rSize=0;strokeColor=#666666;strokeColor2=#008cff;strokeColor3=#c4c4c4;mainText=,;recursiveResize=0;" parent="1" vertex="1">
                    <mxGeometry x="-20" y="30" width="740" height="620" as="geometry"/>
                </mxCell>
                <mxCell id="10" value="Page 1" style="strokeWidth=1;shadow=0;dashed=0;align=center;html=1;shape=mxgraph.mockup.containers.anchor;fontSize=17;fontColor=#666666;align=left;" parent="9" vertex="1">
                    <mxGeometry x="60" y="12" width="110" height="26" as="geometry"/>
                </mxCell>
                <mxCell id="11" value="https://www." style="strokeWidth=1;shadow=0;dashed=0;align=center;html=1;shape=mxgraph.mockup.containers.anchor;rSize=0;fontSize=17;fontColor=#666666;align=left;" parent="9" vertex="1">
                    <mxGeometry x="130" y="60" width="250" height="26" as="geometry"/>
                </mxCell>
                <mxCell id="2" value="LOGO" style="rounded=0;whiteSpace=wrap;html=1;" parent="9" vertex="1">
                    <mxGeometry x="20" y="120" width="80" height="40" as="geometry"/>
                </mxCell>
                <mxCell id="12" value="" style="strokeWidth=1;shadow=0;dashed=0;align=center;html=1;shape=mxgraph.mockup.forms.rrect;rSize=0;strokeColor=#999999;" parent="9" vertex="1">
                    <mxGeometry x="110" y="120" width="498" height="40" as="geometry"/>
                </mxCell>
                <mxCell id="13" value="Nhân viên" style="strokeColor=#001DBC;fillColor=#0050ef;strokeWidth=1;shadow=0;dashed=0;align=center;html=1;shape=mxgraph.mockup.forms.rrect;rSize=0;fontSize=17;fontColor=#ffffff;" parent="12" vertex="1">
                    <mxGeometry width="110" height="40" as="geometry"/>
                </mxCell>
                <mxCell id="14" value="Phòng ban" style="strokeColor=inherit;fillColor=inherit;gradientColor=inherit;strokeWidth=1;shadow=0;dashed=0;align=center;html=1;shape=mxgraph.mockup.forms.rrect;rSize=0;fontSize=17;fontColor=#666666;" parent="12" vertex="1">
                    <mxGeometry x="120" width="102" height="40" as="geometry"/>
                </mxCell>
                <mxCell id="15" value="Bảng lương" style="strokeColor=inherit;fillColor=inherit;gradientColor=inherit;strokeWidth=1;shadow=0;dashed=0;align=center;html=1;shape=mxgraph.mockup.forms.rrect;rSize=0;fontSize=17;fontColor=#666666;" parent="12" vertex="1">
                    <mxGeometry x="230" width="102.5" height="40" as="geometry"/>
                </mxCell>
                <mxCell id="18" value="Help" style="strokeColor=inherit;fillColor=inherit;gradientColor=inherit;strokeWidth=1;shadow=0;dashed=0;align=center;html=1;shape=mxgraph.mockup.forms.rrect;rSize=0;fontSize=17;fontColor=#666666;" parent="12" vertex="1">
                    <mxGeometry x="340" width="83" height="40" as="geometry"/>
                </mxCell>
                <mxCell id="29" value="" style="strokeWidth=1;shadow=0;dashed=0;align=center;html=1;shape=mxgraph.mockup.text.rrect;rSize=0;spacing=6;strokeColor=none;fontStyle=1" parent="9" vertex="1">
                    <mxGeometry x="20" y="180" width="310" height="50" as="geometry"/>
                </mxCell>
                <mxCell id="33" value="&lt;font style=&quot;font-size: 28px&quot;&gt;Nhân viên&lt;/font&gt;" style="strokeWidth=1;shadow=0;dashed=0;align=center;html=1;shape=mxgraph.mockup.text.rrect;rSize=0;fontSize=17;strokeColor=none;fontStyle=1;fontColor=#000000;" parent="29" vertex="1">
                    <mxGeometry width="161.20000000000002" height="50" as="geometry"/>
                </mxCell>
                <mxCell id="40" value="" style="verticalLabelPosition=bottom;shadow=0;dashed=0;align=center;html=1;verticalAlign=top;strokeWidth=1;shape=mxgraph.mockup.containers.userMale;strokeColor=#666666;strokeColor2=#008cff;fillColor=none;" parent="9" vertex="1">
                    <mxGeometry x="20" y="420" width="100" height="100" as="geometry"/>
                </mxCell>
                <mxCell id="41" value="" style="verticalLabelPosition=bottom;shadow=0;dashed=0;align=center;html=1;verticalAlign=top;strokeWidth=1;shape=mxgraph.mockup.containers.userFemale;strokeColor=#666666;strokeColor2=#008cff;fillColor=none;" parent="9" vertex="1">
                    <mxGeometry x="140" y="420" width="100" height="100" as="geometry"/>
                </mxCell>
                <mxCell id="42" value="" style="verticalLabelPosition=bottom;shadow=0;dashed=0;align=center;html=1;verticalAlign=top;strokeWidth=1;shape=mxgraph.mockup.containers.userMale;strokeColor=#666666;strokeColor2=#008cff;fillColor=none;" parent="9" vertex="1">
                    <mxGeometry x="260" y="420" width="100" height="100" as="geometry"/>
                </mxCell>
                <mxCell id="43" value="" style="verticalLabelPosition=bottom;shadow=0;dashed=0;align=center;html=1;verticalAlign=top;strokeWidth=1;shape=mxgraph.mockup.containers.userFemale;strokeColor=#666666;strokeColor2=#008cff;fillColor=none;" parent="9" vertex="1">
                    <mxGeometry x="380" y="420" width="100" height="100" as="geometry"/>
                </mxCell>
                <mxCell id="44" value="" style="verticalLabelPosition=bottom;shadow=0;dashed=0;align=center;html=1;verticalAlign=top;strokeWidth=1;shape=mxgraph.mockup.containers.userMale;strokeColor=#666666;strokeColor2=#008cff;fillColor=none;" parent="9" vertex="1">
                    <mxGeometry x="500" y="420" width="100" height="100" as="geometry"/>
                </mxCell>
                <mxCell id="45" value="" style="verticalLabelPosition=bottom;shadow=0;dashed=0;align=center;html=1;verticalAlign=top;strokeWidth=1;shape=mxgraph.mockup.containers.userFemale;strokeColor=#666666;strokeColor2=#008cff;fillColor=none;" parent="9" vertex="1">
                    <mxGeometry x="620" y="420" width="100" height="100" as="geometry"/>
                </mxCell>
                <mxCell id="51" value="Nguyễn Văn A" style="strokeWidth=1;shadow=0;dashed=0;align=center;html=1;shape=mxgraph.mockup.text.textBox;align=left;fontSize=13;spacingLeft=4;spacingTop=-3;strokeColor=#666666;mainText=;fillColor=none;fontColor=#050505;" parent="9" vertex="1">
                    <mxGeometry x="20" y="350" width="100" height="30" as="geometry"/>
                </mxCell>
                <mxCell id="88" value="Nguyễn Thị B" style="strokeWidth=1;shadow=0;dashed=0;align=center;html=1;shape=mxgraph.mockup.text.textBox;align=left;fontSize=13;spacingLeft=4;spacingTop=-3;strokeColor=#666666;mainText=;fillColor=none;fontColor=#050505;" parent="9" vertex="1">
                    <mxGeometry x="140" y="350" width="100" height="30" as="geometry"/>
                </mxCell>
                <mxCell id="89" value="Nguyễn Văn C" style="strokeWidth=1;shadow=0;dashed=0;align=center;html=1;shape=mxgraph.mockup.text.textBox;align=left;fontSize=13;spacingLeft=4;spacingTop=-3;strokeColor=#666666;mainText=;fillColor=none;fontColor=#050505;" parent="9" vertex="1">
                    <mxGeometry x="260" y="350" width="100" height="30" as="geometry"/>
                </mxCell>
                <mxCell id="90" value="Nguyễn Thị D" style="strokeWidth=1;shadow=0;dashed=0;align=center;html=1;shape=mxgraph.mockup.text.textBox;align=left;fontSize=13;spacingLeft=4;spacingTop=-3;strokeColor=#666666;mainText=;fillColor=none;fontColor=#050505;" parent="9" vertex="1">
                    <mxGeometry x="380" y="350" width="100" height="30" as="geometry"/>
                </mxCell>
                <mxCell id="91" value="Nguyễn Văn E" style="strokeWidth=1;shadow=0;dashed=0;align=center;html=1;shape=mxgraph.mockup.text.textBox;align=left;fontSize=13;spacingLeft=4;spacingTop=-3;strokeColor=#666666;mainText=;fillColor=none;fontColor=#050505;" parent="9" vertex="1">
                    <mxGeometry x="500" y="350" width="100" height="30" as="geometry"/>
                </mxCell>
                <mxCell id="92" value="Nguyễn Thị F" style="strokeWidth=1;shadow=0;dashed=0;align=center;html=1;shape=mxgraph.mockup.text.textBox;align=left;fontSize=13;spacingLeft=4;spacingTop=-3;strokeColor=#666666;mainText=;fillColor=none;fontColor=#050505;" parent="9" vertex="1">
                    <mxGeometry x="620" y="350" width="100" height="30" as="geometry"/>
                </mxCell>
                <mxCell id="93" value="Nguyễn Văn O" style="strokeWidth=1;shadow=0;dashed=0;align=center;html=1;shape=mxgraph.mockup.text.textBox;align=left;fontSize=13;spacingLeft=4;spacingTop=-3;strokeColor=#666666;mainText=;fillColor=none;fontColor=#050505;" parent="9" vertex="1">
                    <mxGeometry x="500" y="520" width="100" height="30" as="geometry"/>
                </mxCell>
                <mxCell id="94" value="Nguyễn Thị Y" style="strokeWidth=1;shadow=0;dashed=0;align=center;html=1;shape=mxgraph.mockup.text.textBox;align=left;fontSize=13;spacingLeft=4;spacingTop=-3;strokeColor=#666666;mainText=;fillColor=none;fontColor=#050505;" parent="9" vertex="1">
                    <mxGeometry x="620" y="520" width="100" height="30" as="geometry"/>
                </mxCell>
                <mxCell id="95" value="Nguyễn Văn G" style="strokeWidth=1;shadow=0;dashed=0;align=center;html=1;shape=mxgraph.mockup.text.textBox;align=left;fontSize=13;spacingLeft=4;spacingTop=-3;strokeColor=#666666;mainText=;fillColor=none;fontColor=#050505;" parent="9" vertex="1">
                    <mxGeometry x="20" y="520" width="100" height="30" as="geometry"/>
                </mxCell>
                <mxCell id="96" value="Nguyễn Thị H" style="strokeWidth=1;shadow=0;dashed=0;align=center;html=1;shape=mxgraph.mockup.text.textBox;align=left;fontSize=13;spacingLeft=4;spacingTop=-3;strokeColor=#666666;mainText=;fillColor=none;fontColor=#050505;" parent="9" vertex="1">
                    <mxGeometry x="140" y="520" width="100" height="30" as="geometry"/>
                </mxCell>
                <mxCell id="97" value="Nguyễn Văn I" style="strokeWidth=1;shadow=0;dashed=0;align=center;html=1;shape=mxgraph.mockup.text.textBox;align=left;fontSize=13;spacingLeft=4;spacingTop=-3;strokeColor=#666666;mainText=;fillColor=none;fontColor=#050505;" parent="9" vertex="1">
                    <mxGeometry x="260" y="520" width="100" height="30" as="geometry"/>
                </mxCell>
                <mxCell id="98" value="Nguyễn Thị J" style="strokeWidth=1;shadow=0;dashed=0;align=center;html=1;shape=mxgraph.mockup.text.textBox;align=left;fontSize=13;spacingLeft=4;spacingTop=-3;strokeColor=#666666;mainText=;fillColor=none;fontColor=#050505;" parent="9" vertex="1">
                    <mxGeometry x="380" y="520" width="100" height="30" as="geometry"/>
                </mxCell>
                <mxCell id="34" value="" style="verticalLabelPosition=bottom;shadow=0;dashed=0;align=center;html=1;verticalAlign=top;strokeWidth=1;shape=mxgraph.mockup.containers.userMale;strokeColor=#666666;strokeColor2=#008cff;fillColor=none;" parent="1" vertex="1">
                    <mxGeometry y="280" width="100" height="100" as="geometry"/>
                </mxCell>
                <mxCell id="35" value="" style="verticalLabelPosition=bottom;shadow=0;dashed=0;align=center;html=1;verticalAlign=top;strokeWidth=1;shape=mxgraph.mockup.containers.userFemale;strokeColor=#666666;strokeColor2=#008cff;fillColor=none;" parent="1" vertex="1">
                    <mxGeometry x="120" y="280" width="100" height="100" as="geometry"/>
                </mxCell>
                <mxCell id="36" value="" style="verticalLabelPosition=bottom;shadow=0;dashed=0;align=center;html=1;verticalAlign=top;strokeWidth=1;shape=mxgraph.mockup.containers.userMale;strokeColor=#666666;strokeColor2=#008cff;fillColor=none;" parent="1" vertex="1">
                    <mxGeometry x="240" y="280" width="100" height="100" as="geometry"/>
                </mxCell>
                <mxCell id="37" value="" style="verticalLabelPosition=bottom;shadow=0;dashed=0;align=center;html=1;verticalAlign=top;strokeWidth=1;shape=mxgraph.mockup.containers.userFemale;strokeColor=#666666;strokeColor2=#008cff;fillColor=none;" parent="1" vertex="1">
                    <mxGeometry x="360" y="280" width="100" height="100" as="geometry"/>
                </mxCell>
                <mxCell id="38" value="" style="verticalLabelPosition=bottom;shadow=0;dashed=0;align=center;html=1;verticalAlign=top;strokeWidth=1;shape=mxgraph.mockup.containers.userMale;strokeColor=#666666;strokeColor2=#008cff;fillColor=none;" parent="1" vertex="1">
                    <mxGeometry x="480" y="280" width="100" height="100" as="geometry"/>
                </mxCell>
                <mxCell id="39" value="" style="verticalLabelPosition=bottom;shadow=0;dashed=0;align=center;html=1;verticalAlign=top;strokeWidth=1;shape=mxgraph.mockup.containers.userFemale;strokeColor=#666666;strokeColor2=#008cff;fillColor=none;" parent="1" vertex="1">
                    <mxGeometry x="600" y="280" width="100" height="100" as="geometry"/>
                </mxCell>
            </root>
        </mxGraphModel>
    </diagram>
</mxfile>